<mxfile host="Electron" agent="Mozilla/5.0 (Windows NT 10.0; Win64; x64) AppleWebKit/537.36 (KHTML, like Gecko) draw.io/24.7.8 Chrome/128.0.6613.36 Electron/32.0.1 Safari/537.36" version="24.7.8">
  <diagram name="Page-1" id="6I44-us--hiSop89cord">
    <mxGraphModel dx="2049" dy="1206" grid="1" gridSize="10" guides="1" tooltips="1" connect="1" arrows="1" fold="1" page="1" pageScale="1" pageWidth="850" pageHeight="1100" math="0" shadow="0">
      <root>
        <mxCell id="0" />
        <mxCell id="1" parent="0" />
        <mxCell id="Gy1fnxnV3X4pEZG5twj5-114" value="Generate PA input signal" style="whiteSpace=wrap;strokeWidth=2;gradientColor=none;" parent="1" vertex="1">
          <mxGeometry x="224" y="123" width="190" height="34" as="geometry" />
        </mxCell>
        <mxCell id="Gy1fnxnV3X4pEZG5twj5-115" value="paInput" style="shape=parallelogram;perimeter=parallelogramPerimeter;fixedSize=1;strokeWidth=2;whiteSpace=wrap;" parent="1" vertex="1">
          <mxGeometry x="273" y="200" width="93" height="34" as="geometry" />
        </mxCell>
        <mxCell id="Gy1fnxnV3X4pEZG5twj5-116" value="PA AMAM/AMPM model LUT" style="shape=parallelogram;perimeter=parallelogramPerimeter;fixedSize=1;strokeWidth=2;whiteSpace=wrap;" parent="1" vertex="1">
          <mxGeometry x="420.5" y="50" width="231" height="34" as="geometry" />
        </mxCell>
        <mxCell id="Gy1fnxnV3X4pEZG5twj5-117" value="Create PA memoryless model" style="whiteSpace=wrap;strokeWidth=2;" parent="1" vertex="1">
          <mxGeometry x="425" y="123" width="222" height="34" as="geometry" />
        </mxCell>
        <mxCell id="Gy1fnxnV3X4pEZG5twj5-118" value="paModel" style="shape=parallelogram;perimeter=parallelogramPerimeter;fixedSize=1;strokeWidth=2;whiteSpace=wrap;" parent="1" vertex="1">
          <mxGeometry x="487" y="200" width="98" height="34" as="geometry" />
        </mxCell>
        <mxCell id="Gy1fnxnV3X4pEZG5twj5-119" value="Generate PA output signal" style="whiteSpace=wrap;strokeWidth=2;" parent="1" vertex="1">
          <mxGeometry x="322" y="280" width="201" height="34" as="geometry" />
        </mxCell>
        <mxCell id="Gy1fnxnV3X4pEZG5twj5-120" value="paOutput" style="shape=parallelogram;perimeter=parallelogramPerimeter;fixedSize=1;strokeWidth=2;whiteSpace=wrap;" parent="1" vertex="1">
          <mxGeometry x="575" y="280" width="106" height="34" as="geometry" />
        </mxCell>
        <mxCell id="Gy1fnxnV3X4pEZG5twj5-123" value="Generate PA input with DPD pre-distortion signal" style="whiteSpace=wrap;strokeWidth=2;" parent="1" vertex="1">
          <mxGeometry x="250" y="420" width="345" height="34" as="geometry" />
        </mxCell>
        <mxCell id="Gy1fnxnV3X4pEZG5twj5-124" value="paInputWiDpd" style="shape=parallelogram;perimeter=parallelogramPerimeter;fixedSize=1;strokeWidth=2;whiteSpace=wrap;" parent="1" vertex="1">
          <mxGeometry x="640" y="420" width="138" height="34" as="geometry" />
        </mxCell>
        <mxCell id="Gy1fnxnV3X4pEZG5twj5-125" value="Apply CFR function" style="whiteSpace=wrap;strokeWidth=2;" parent="1" vertex="1">
          <mxGeometry x="346" y="490" width="153" height="34" as="geometry" />
        </mxCell>
        <mxCell id="Gy1fnxnV3X4pEZG5twj5-126" value="paInputWiDpdCfr" style="shape=parallelogram;perimeter=parallelogramPerimeter;fixedSize=1;strokeWidth=2;whiteSpace=wrap;" parent="1" vertex="1">
          <mxGeometry x="623" y="490" width="160" height="34" as="geometry" />
        </mxCell>
        <mxCell id="Gy1fnxnV3X4pEZG5twj5-127" value="Generate PA output with DPD signal" style="whiteSpace=wrap;strokeWidth=2;" parent="1" vertex="1">
          <mxGeometry x="296.5" y="560" width="252" height="34" as="geometry" />
        </mxCell>
        <mxCell id="Gy1fnxnV3X4pEZG5twj5-128" value="paOutputWiDpd" style="shape=parallelogram;perimeter=parallelogramPerimeter;fixedSize=1;strokeWidth=2;whiteSpace=wrap;" parent="1" vertex="1">
          <mxGeometry x="346" y="630" width="151" height="34" as="geometry" />
        </mxCell>
        <mxCell id="Gy1fnxnV3X4pEZG5twj5-129" value="Check power meet the target?" style="rhombus;strokeWidth=2;whiteSpace=wrap;" parent="1" vertex="1">
          <mxGeometry x="288" y="700" width="267" height="80" as="geometry" />
        </mxCell>
        <mxCell id="Gy1fnxnV3X4pEZG5twj5-132" value="Out" style="curved=1;startArrow=none;endArrow=block;exitX=0.5;exitY=1;entryX=0.5;entryY=0;rounded=0;" parent="1" source="Gy1fnxnV3X4pEZG5twj5-114" target="Gy1fnxnV3X4pEZG5twj5-115" edge="1">
          <mxGeometry relative="1" as="geometry">
            <Array as="points" />
          </mxGeometry>
        </mxCell>
        <mxCell id="Gy1fnxnV3X4pEZG5twj5-133" value="In" style="curved=1;startArrow=none;endArrow=block;exitX=0.5;exitY=1;entryX=0.5;entryY=0;rounded=0;entryDx=0;entryDy=0;exitDx=0;exitDy=0;" parent="1" source="Gy1fnxnV3X4pEZG5twj5-116" target="Gy1fnxnV3X4pEZG5twj5-117" edge="1">
          <mxGeometry relative="1" as="geometry">
            <Array as="points" />
          </mxGeometry>
        </mxCell>
        <mxCell id="Gy1fnxnV3X4pEZG5twj5-134" value="Out" style="curved=1;startArrow=none;endArrow=block;exitX=0.5;exitY=1;entryX=0.5;entryY=0;rounded=0;" parent="1" source="Gy1fnxnV3X4pEZG5twj5-117" target="Gy1fnxnV3X4pEZG5twj5-118" edge="1">
          <mxGeometry relative="1" as="geometry">
            <Array as="points" />
          </mxGeometry>
        </mxCell>
        <mxCell id="Gy1fnxnV3X4pEZG5twj5-135" value="" style="curved=1;startArrow=none;endArrow=block;exitX=1;exitY=0.5;entryX=0;entryY=0.5;rounded=0;exitDx=0;exitDy=0;entryDx=0;entryDy=0;" parent="1" source="Gy1fnxnV3X4pEZG5twj5-119" target="Gy1fnxnV3X4pEZG5twj5-120" edge="1">
          <mxGeometry relative="1" as="geometry">
            <Array as="points" />
          </mxGeometry>
        </mxCell>
        <mxCell id="Gy1fnxnV3X4pEZG5twj5-181" value="Out" style="edgeLabel;html=1;align=center;verticalAlign=middle;resizable=0;points=[];" parent="Gy1fnxnV3X4pEZG5twj5-135" vertex="1" connectable="0">
          <mxGeometry x="0.0674" relative="1" as="geometry">
            <mxPoint x="-4" as="offset" />
          </mxGeometry>
        </mxCell>
        <mxCell id="Gy1fnxnV3X4pEZG5twj5-136" value="In" style="startArrow=none;endArrow=block;exitX=0.5;exitY=1;entryX=0.25;entryY=0;rounded=0;exitDx=0;exitDy=0;edgeStyle=orthogonalEdgeStyle;entryDx=0;entryDy=0;" parent="1" source="Gy1fnxnV3X4pEZG5twj5-115" target="Gy1fnxnV3X4pEZG5twj5-119" edge="1">
          <mxGeometry relative="1" as="geometry" />
        </mxCell>
        <mxCell id="Gy1fnxnV3X4pEZG5twj5-137" value="In" style="startArrow=none;endArrow=block;exitX=0.438;exitY=0.997;entryX=0.75;entryY=0;rounded=0;exitDx=0;exitDy=0;exitPerimeter=0;edgeStyle=orthogonalEdgeStyle;entryDx=0;entryDy=0;" parent="1" source="Gy1fnxnV3X4pEZG5twj5-118" target="Gy1fnxnV3X4pEZG5twj5-119" edge="1">
          <mxGeometry relative="1" as="geometry" />
        </mxCell>
        <mxCell id="Gy1fnxnV3X4pEZG5twj5-143" value="In" style="startArrow=none;endArrow=block;exitX=0.5;exitY=1;entryX=0.75;entryY=0;rounded=0;edgeStyle=orthogonalEdgeStyle;exitDx=0;exitDy=0;entryDx=0;entryDy=0;" parent="1" source="Gy1fnxnV3X4pEZG5twj5-124" target="Gy1fnxnV3X4pEZG5twj5-125" edge="1">
          <mxGeometry relative="1" as="geometry" />
        </mxCell>
        <mxCell id="Gy1fnxnV3X4pEZG5twj5-144" value="Out" style="curved=1;startArrow=none;endArrow=block;exitX=1;exitY=0.5;entryX=0;entryY=0.5;rounded=0;exitDx=0;exitDy=0;entryDx=0;entryDy=0;" parent="1" source="Gy1fnxnV3X4pEZG5twj5-125" target="Gy1fnxnV3X4pEZG5twj5-126" edge="1">
          <mxGeometry relative="1" as="geometry">
            <Array as="points" />
          </mxGeometry>
        </mxCell>
        <mxCell id="Gy1fnxnV3X4pEZG5twj5-145" value="" style="startArrow=none;endArrow=block;exitX=0.5;exitY=1;entryX=0.75;entryY=0;rounded=0;edgeStyle=orthogonalEdgeStyle;entryDx=0;entryDy=0;" parent="1" source="Gy1fnxnV3X4pEZG5twj5-126" target="Gy1fnxnV3X4pEZG5twj5-127" edge="1">
          <mxGeometry relative="1" as="geometry" />
        </mxCell>
        <mxCell id="Gy1fnxnV3X4pEZG5twj5-198" value="In" style="edgeLabel;html=1;align=center;verticalAlign=middle;resizable=0;points=[];" parent="Gy1fnxnV3X4pEZG5twj5-145" vertex="1" connectable="0">
          <mxGeometry x="-0.7242" relative="1" as="geometry">
            <mxPoint x="-86" as="offset" />
          </mxGeometry>
        </mxCell>
        <mxCell id="Gy1fnxnV3X4pEZG5twj5-146" value="In" style="startArrow=none;endArrow=block;exitX=1;exitY=0.71;entryX=1;entryY=0.5;rounded=0;edgeStyle=orthogonalEdgeStyle;entryDx=0;entryDy=0;" parent="1" source="Gy1fnxnV3X4pEZG5twj5-118" target="Gy1fnxnV3X4pEZG5twj5-127" edge="1">
          <mxGeometry relative="1" as="geometry">
            <Array as="points">
              <mxPoint x="800" y="222" />
              <mxPoint x="800" y="577" />
            </Array>
          </mxGeometry>
        </mxCell>
        <mxCell id="Gy1fnxnV3X4pEZG5twj5-147" value="Out" style="curved=1;startArrow=none;endArrow=block;exitX=0.5;exitY=1;entryX=0.5;entryY=0;rounded=0;" parent="1" source="Gy1fnxnV3X4pEZG5twj5-127" target="Gy1fnxnV3X4pEZG5twj5-128" edge="1">
          <mxGeometry relative="1" as="geometry">
            <Array as="points" />
          </mxGeometry>
        </mxCell>
        <mxCell id="Gy1fnxnV3X4pEZG5twj5-148" value="" style="curved=1;startArrow=none;endArrow=block;exitX=0.5;exitY=1;entryX=0.5;entryY=0;rounded=0;" parent="1" source="Gy1fnxnV3X4pEZG5twj5-128" target="Gy1fnxnV3X4pEZG5twj5-129" edge="1">
          <mxGeometry relative="1" as="geometry">
            <Array as="points" />
          </mxGeometry>
        </mxCell>
        <mxCell id="Gy1fnxnV3X4pEZG5twj5-151" value="No" style="startArrow=none;endArrow=block;exitX=0;exitY=0.5;rounded=0;entryX=0.5;entryY=1;entryDx=0;entryDy=0;edgeStyle=orthogonalEdgeStyle;exitDx=0;exitDy=0;" parent="1" source="Gy1fnxnV3X4pEZG5twj5-129" target="Gy1fnxnV3X4pEZG5twj5-204" edge="1">
          <mxGeometry relative="1" as="geometry">
            <mxPoint x="170" y="610" as="targetPoint" />
          </mxGeometry>
        </mxCell>
        <mxCell id="Gy1fnxnV3X4pEZG5twj5-178" value="Generate DPD coefficients" style="whiteSpace=wrap;strokeWidth=2;" parent="1" vertex="1">
          <mxGeometry x="329.5" y="350" width="186" height="34" as="geometry" />
        </mxCell>
        <mxCell id="Gy1fnxnV3X4pEZG5twj5-179" value="" style="curved=1;startArrow=none;endArrow=block;exitX=0.5;exitY=1;entryX=0.5;entryY=0;rounded=0;exitDx=0;exitDy=0;entryDx=0;entryDy=0;" parent="1" source="Gy1fnxnV3X4pEZG5twj5-119" target="Gy1fnxnV3X4pEZG5twj5-178" edge="1">
          <mxGeometry relative="1" as="geometry">
            <Array as="points" />
            <mxPoint x="329" y="167" as="sourcePoint" />
            <mxPoint x="330" y="210" as="targetPoint" />
          </mxGeometry>
        </mxCell>
        <mxCell id="Gy1fnxnV3X4pEZG5twj5-180" value="coefs_dpd" style="shape=parallelogram;perimeter=parallelogramPerimeter;fixedSize=1;strokeWidth=2;whiteSpace=wrap;" parent="1" vertex="1">
          <mxGeometry x="560" y="350" width="106" height="34" as="geometry" />
        </mxCell>
        <mxCell id="Gy1fnxnV3X4pEZG5twj5-183" value="" style="curved=1;startArrow=none;endArrow=block;exitX=1;exitY=0.5;rounded=0;exitDx=0;exitDy=0;entryX=0;entryY=0.5;entryDx=0;entryDy=0;" parent="1" source="Gy1fnxnV3X4pEZG5twj5-178" target="Gy1fnxnV3X4pEZG5twj5-180" edge="1">
          <mxGeometry relative="1" as="geometry">
            <Array as="points" />
            <mxPoint x="533" y="307" as="sourcePoint" />
            <mxPoint x="570" y="368" as="targetPoint" />
          </mxGeometry>
        </mxCell>
        <mxCell id="Gy1fnxnV3X4pEZG5twj5-184" value="Out" style="edgeLabel;html=1;align=center;verticalAlign=middle;resizable=0;points=[];" parent="Gy1fnxnV3X4pEZG5twj5-183" vertex="1" connectable="0">
          <mxGeometry x="0.0674" relative="1" as="geometry">
            <mxPoint as="offset" />
          </mxGeometry>
        </mxCell>
        <mxCell id="Gy1fnxnV3X4pEZG5twj5-186" value="In" style="startArrow=none;endArrow=block;exitX=0.25;exitY=1;entryX=0;entryY=0.5;rounded=0;exitDx=0;exitDy=0;edgeStyle=orthogonalEdgeStyle;entryDx=0;entryDy=0;" parent="1" source="Gy1fnxnV3X4pEZG5twj5-115" target="Gy1fnxnV3X4pEZG5twj5-178" edge="1">
          <mxGeometry relative="1" as="geometry">
            <mxPoint x="330" y="244" as="sourcePoint" />
            <mxPoint x="382" y="290" as="targetPoint" />
            <Array as="points">
              <mxPoint x="296" y="340" />
              <mxPoint x="296" y="340" />
              <mxPoint x="296" y="367" />
            </Array>
          </mxGeometry>
        </mxCell>
        <mxCell id="Gy1fnxnV3X4pEZG5twj5-187" value="In" style="startArrow=none;endArrow=block;exitX=0.25;exitY=1;entryX=0.75;entryY=0;rounded=0;exitDx=0;exitDy=0;edgeStyle=orthogonalEdgeStyle;entryDx=0;entryDy=0;" parent="1" source="Gy1fnxnV3X4pEZG5twj5-120" target="Gy1fnxnV3X4pEZG5twj5-178" edge="1">
          <mxGeometry relative="1" as="geometry">
            <mxPoint x="306" y="244" as="sourcePoint" />
            <mxPoint x="340" y="377" as="targetPoint" />
          </mxGeometry>
        </mxCell>
        <mxCell id="Gy1fnxnV3X4pEZG5twj5-188" value="" style="curved=1;startArrow=none;endArrow=block;exitX=0.5;exitY=1;entryX=0.5;entryY=0;rounded=0;exitDx=0;exitDy=0;entryDx=0;entryDy=0;" parent="1" source="Gy1fnxnV3X4pEZG5twj5-178" target="Gy1fnxnV3X4pEZG5twj5-123" edge="1">
          <mxGeometry relative="1" as="geometry">
            <Array as="points" />
            <mxPoint x="422.3" y="384" as="sourcePoint" />
            <mxPoint x="422.3" y="420" as="targetPoint" />
          </mxGeometry>
        </mxCell>
        <mxCell id="Gy1fnxnV3X4pEZG5twj5-189" value="In" style="startArrow=none;endArrow=block;exitX=0.25;exitY=1;entryX=0.75;entryY=0;rounded=0;exitDx=0;exitDy=0;entryDx=0;entryDy=0;edgeStyle=orthogonalEdgeStyle;" parent="1" source="Gy1fnxnV3X4pEZG5twj5-180" target="Gy1fnxnV3X4pEZG5twj5-123" edge="1">
          <mxGeometry relative="1" as="geometry">
            <mxPoint x="433" y="394" as="sourcePoint" />
            <mxPoint x="433" y="430" as="targetPoint" />
          </mxGeometry>
        </mxCell>
        <mxCell id="Gy1fnxnV3X4pEZG5twj5-190" value="In" style="startArrow=none;endArrow=block;exitX=0;exitY=0.5;entryX=0.25;entryY=0;rounded=0;exitDx=0;exitDy=0;edgeStyle=orthogonalEdgeStyle;entryDx=0;entryDy=0;" parent="1" source="Gy1fnxnV3X4pEZG5twj5-115" target="Gy1fnxnV3X4pEZG5twj5-123" edge="1">
          <mxGeometry relative="1" as="geometry">
            <mxPoint x="306" y="244" as="sourcePoint" />
            <mxPoint x="340" y="377" as="targetPoint" />
            <Array as="points">
              <mxPoint x="260" y="217" />
              <mxPoint x="260" y="400" />
              <mxPoint x="336" y="400" />
            </Array>
          </mxGeometry>
        </mxCell>
        <mxCell id="Gy1fnxnV3X4pEZG5twj5-191" value="" style="curved=1;startArrow=none;endArrow=block;exitX=1;exitY=0.5;rounded=0;exitDx=0;exitDy=0;entryX=0;entryY=0.5;entryDx=0;entryDy=0;" parent="1" source="Gy1fnxnV3X4pEZG5twj5-123" target="Gy1fnxnV3X4pEZG5twj5-124" edge="1">
          <mxGeometry relative="1" as="geometry">
            <Array as="points" />
            <mxPoint x="597.5" y="420" as="sourcePoint" />
            <mxPoint x="651.5" y="420" as="targetPoint" />
          </mxGeometry>
        </mxCell>
        <mxCell id="Gy1fnxnV3X4pEZG5twj5-192" value="Out" style="edgeLabel;html=1;align=center;verticalAlign=middle;resizable=0;points=[];" parent="Gy1fnxnV3X4pEZG5twj5-191" vertex="1" connectable="0">
          <mxGeometry x="0.0674" relative="1" as="geometry">
            <mxPoint as="offset" />
          </mxGeometry>
        </mxCell>
        <mxCell id="Gy1fnxnV3X4pEZG5twj5-194" value="" style="curved=1;startArrow=none;endArrow=block;exitX=0.5;exitY=1;entryX=0.5;entryY=0;rounded=0;exitDx=0;exitDy=0;entryDx=0;entryDy=0;" parent="1" source="Gy1fnxnV3X4pEZG5twj5-123" target="Gy1fnxnV3X4pEZG5twj5-125" edge="1">
          <mxGeometry relative="1" as="geometry">
            <Array as="points" />
            <mxPoint x="433" y="394" as="sourcePoint" />
            <mxPoint x="433" y="430" as="targetPoint" />
          </mxGeometry>
        </mxCell>
        <mxCell id="Gy1fnxnV3X4pEZG5twj5-196" value="" style="curved=1;startArrow=none;endArrow=block;exitX=0.5;exitY=1;entryX=0.5;entryY=0;rounded=0;exitDx=0;exitDy=0;entryDx=0;entryDy=0;" parent="1" source="Gy1fnxnV3X4pEZG5twj5-123" target="Gy1fnxnV3X4pEZG5twj5-125" edge="1">
          <mxGeometry relative="1" as="geometry">
            <Array as="points" />
            <mxPoint x="422.36" y="454" as="sourcePoint" />
            <mxPoint x="422.36" y="490" as="targetPoint" />
          </mxGeometry>
        </mxCell>
        <mxCell id="Gy1fnxnV3X4pEZG5twj5-197" value="" style="curved=1;startArrow=none;endArrow=block;exitX=0.5;exitY=1;entryX=0.5;entryY=0;rounded=0;exitDx=0;exitDy=0;entryDx=0;entryDy=0;" parent="1" source="Gy1fnxnV3X4pEZG5twj5-125" edge="1">
          <mxGeometry relative="1" as="geometry">
            <Array as="points" />
            <mxPoint x="422.33" y="524" as="sourcePoint" />
            <mxPoint x="422.33" y="560" as="targetPoint" />
          </mxGeometry>
        </mxCell>
        <mxCell id="Gy1fnxnV3X4pEZG5twj5-199" value="" style="curved=1;startArrow=none;endArrow=block;exitX=0.5;exitY=1;entryX=0.5;entryY=0;rounded=0;exitDx=0;exitDy=0;entryDx=0;entryDy=0;" parent="1" source="Gy1fnxnV3X4pEZG5twj5-129" target="Gy1fnxnV3X4pEZG5twj5-202" edge="1">
          <mxGeometry relative="1" as="geometry">
            <Array as="points" />
            <mxPoint x="422.83" y="780" as="sourcePoint" />
            <mxPoint x="421.5" y="820" as="targetPoint" />
          </mxGeometry>
        </mxCell>
        <mxCell id="Gy1fnxnV3X4pEZG5twj5-200" value="Yes" style="edgeLabel;html=1;align=center;verticalAlign=middle;resizable=0;points=[];" parent="Gy1fnxnV3X4pEZG5twj5-199" vertex="1" connectable="0">
          <mxGeometry x="-0.238" relative="1" as="geometry">
            <mxPoint as="offset" />
          </mxGeometry>
        </mxCell>
        <mxCell id="Gy1fnxnV3X4pEZG5twj5-202" value="Export EVM and ACLR" style="shape=document;whiteSpace=wrap;html=1;boundedLbl=1;strokeWidth=2;" parent="1" vertex="1">
          <mxGeometry x="371.5" y="820" width="100" height="40" as="geometry" />
        </mxCell>
        <mxCell id="Gy1fnxnV3X4pEZG5twj5-204" value="Set DesiredAmplitudeGaindB, Memory Polynomial Degree and MemoryDepth" style="shape=manualInput;whiteSpace=wrap;html=1;strokeWidth=2;" parent="1" vertex="1">
          <mxGeometry x="70" y="300" width="154" height="100" as="geometry" />
        </mxCell>
        <mxCell id="Gy1fnxnV3X4pEZG5twj5-206" value="In" style="startArrow=none;endArrow=block;exitX=1;exitY=0.75;entryX=-0.004;entryY=0.863;rounded=0;exitDx=0;exitDy=0;edgeStyle=orthogonalEdgeStyle;entryDx=0;entryDy=0;entryPerimeter=0;" parent="1" source="Gy1fnxnV3X4pEZG5twj5-204" target="Gy1fnxnV3X4pEZG5twj5-178" edge="1">
          <mxGeometry relative="1" as="geometry">
            <mxPoint x="306" y="244" as="sourcePoint" />
            <mxPoint x="340" y="377" as="targetPoint" />
          </mxGeometry>
        </mxCell>
      </root>
    </mxGraphModel>
  </diagram>
</mxfile>
